<mxfile host="app.diagrams.net" agent="Mozilla/5.0 (Windows NT 10.0; Win64; x64) AppleWebKit/537.36 (KHTML, like Gecko) Chrome/129.0.0.0 Safari/537.36" version="24.7.17">
  <diagram name="Page-1" id="2WzUYZ7H5URFNNefFKc7">
    <mxGraphModel dx="737" dy="298" grid="1" gridSize="10" guides="1" tooltips="1" connect="1" arrows="1" fold="1" page="1" pageScale="1" pageWidth="850" pageHeight="1100" math="0" shadow="0">
      <root>
        <mxCell id="0" />
        <mxCell id="1" parent="0" />
        <mxCell id="Dui5MtgD7xMRVYiXMx09-4" value="" style="edgeStyle=orthogonalEdgeStyle;rounded=0;orthogonalLoop=1;jettySize=auto;html=1;" edge="1" parent="1" source="Dui5MtgD7xMRVYiXMx09-1" target="Dui5MtgD7xMRVYiXMx09-3">
          <mxGeometry relative="1" as="geometry" />
        </mxCell>
        <mxCell id="Dui5MtgD7xMRVYiXMx09-1" value="&lt;font style=&quot;font-size: 14px;&quot;&gt;Початок&lt;/font&gt;" style="ellipse;whiteSpace=wrap;html=1;" vertex="1" parent="1">
          <mxGeometry x="330" y="80" width="120" height="60" as="geometry" />
        </mxCell>
        <mxCell id="Dui5MtgD7xMRVYiXMx09-8" value="" style="edgeStyle=orthogonalEdgeStyle;rounded=0;orthogonalLoop=1;jettySize=auto;html=1;" edge="1" parent="1" source="Dui5MtgD7xMRVYiXMx09-2" target="Dui5MtgD7xMRVYiXMx09-6">
          <mxGeometry relative="1" as="geometry" />
        </mxCell>
        <mxCell id="Dui5MtgD7xMRVYiXMx09-2" value="Вивід результату&amp;nbsp;&lt;div&gt;++n * ++m&lt;/div&gt;" style="shape=parallelogram;perimeter=parallelogramPerimeter;whiteSpace=wrap;html=1;fixedSize=1;" vertex="1" parent="1">
          <mxGeometry x="310" y="280" width="160" height="40" as="geometry" />
        </mxCell>
        <mxCell id="Dui5MtgD7xMRVYiXMx09-5" value="" style="edgeStyle=orthogonalEdgeStyle;rounded=0;orthogonalLoop=1;jettySize=auto;html=1;" edge="1" parent="1" source="Dui5MtgD7xMRVYiXMx09-3" target="Dui5MtgD7xMRVYiXMx09-2">
          <mxGeometry relative="1" as="geometry" />
        </mxCell>
        <mxCell id="Dui5MtgD7xMRVYiXMx09-3" value="Створення довільних цілочисельних змінних&amp;nbsp;&lt;div&gt;n та m&lt;/div&gt;" style="rounded=1;whiteSpace=wrap;html=1;" vertex="1" parent="1">
          <mxGeometry x="310" y="180" width="160" height="60" as="geometry" />
        </mxCell>
        <mxCell id="Dui5MtgD7xMRVYiXMx09-9" value="" style="edgeStyle=orthogonalEdgeStyle;rounded=0;orthogonalLoop=1;jettySize=auto;html=1;" edge="1" parent="1" source="Dui5MtgD7xMRVYiXMx09-6" target="Dui5MtgD7xMRVYiXMx09-7">
          <mxGeometry relative="1" as="geometry" />
        </mxCell>
        <mxCell id="Dui5MtgD7xMRVYiXMx09-6" value="Вивід результату&amp;nbsp;&lt;div&gt;m++ &amp;lt; n&lt;/div&gt;" style="shape=parallelogram;perimeter=parallelogramPerimeter;whiteSpace=wrap;html=1;fixedSize=1;" vertex="1" parent="1">
          <mxGeometry x="310" y="360" width="160" height="40" as="geometry" />
        </mxCell>
        <mxCell id="Dui5MtgD7xMRVYiXMx09-11" value="" style="edgeStyle=orthogonalEdgeStyle;rounded=0;orthogonalLoop=1;jettySize=auto;html=1;" edge="1" parent="1" source="Dui5MtgD7xMRVYiXMx09-7" target="Dui5MtgD7xMRVYiXMx09-10">
          <mxGeometry relative="1" as="geometry" />
        </mxCell>
        <mxCell id="Dui5MtgD7xMRVYiXMx09-7" value="Вивід результату&amp;nbsp;&lt;div&gt;n++ &amp;gt; m&lt;/div&gt;" style="shape=parallelogram;perimeter=parallelogramPerimeter;whiteSpace=wrap;html=1;fixedSize=1;" vertex="1" parent="1">
          <mxGeometry x="310" y="440" width="160" height="40" as="geometry" />
        </mxCell>
        <mxCell id="Dui5MtgD7xMRVYiXMx09-10" value="&lt;font style=&quot;font-size: 14px;&quot;&gt;Кінець&lt;/font&gt;" style="ellipse;whiteSpace=wrap;html=1;" vertex="1" parent="1">
          <mxGeometry x="330" y="530" width="120" height="60" as="geometry" />
        </mxCell>
      </root>
    </mxGraphModel>
  </diagram>
</mxfile>
